<?xml version="1.0" encoding="utf-8"?>
<svg version="1.1" id="Capa_1" x="0px" y="0px" viewBox="0 117.409 30 20" style="enable-background:new 0 0 548.358 548.358;" width="377px" height="512px" xmlns="http://www.w3.org/2000/svg">
  <g transform="matrix(0.062115, 0, 0, 0.06376, 0, 109.923035)">
    <path d="M 477.269 400.298 C 476.688 398.867 476.147 397.68 475.644 396.729 C 467.319 379.594 451.41 358.562 427.928 333.627 L 427.432 333.056 L 427.183 332.776 L 426.932 332.489 L 426.68 332.489 C 416.023 320.878 409.274 313.071 406.448 309.074 C 401.276 301.46 400.118 293.753 402.944 285.944 C 404.941 280.044 412.441 267.584 425.428 248.547 C 432.259 238.458 437.669 230.372 441.665 224.28 C 470.479 180.5 482.972 152.524 479.139 140.341 L 477.651 137.494 C 476.651 135.78 474.069 134.212 469.911 132.782 C 465.742 131.355 460.414 131.119 453.917 132.07 L 381.971 132.638 C 380.806 132.166 379.142 132.21 376.973 132.782 C 374.808 133.354 373.725 133.641 373.725 133.641 L 372.472 134.356 L 371.478 135.215 C 370.645 135.783 369.729 136.782 368.729 138.21 C 367.734 139.633 366.902 141.303 366.237 143.206 C 358.404 166.237 349.498 187.65 339.503 207.444 C 333.341 219.247 327.681 229.476 322.513 238.137 C 317.351 246.795 313.021 253.174 309.526 257.263 C 306.026 261.356 302.867 264.635 300.03 267.112 C 297.198 269.59 295.036 270.637 293.539 270.254 C 292.038 269.871 290.625 269.491 289.287 269.111 C 286.957 267.397 285.083 265.066 283.67 262.116 C 282.25 259.166 281.295 255.453 280.795 250.98 C 280.298 246.504 280.004 242.654 279.92 239.417 C 279.842 236.184 279.878 231.611 280.047 225.711 C 280.22 219.808 280.298 215.814 280.298 213.72 C 280.298 206.486 280.422 198.635 280.669 190.165 C 280.921 181.695 281.125 174.984 281.296 170.04 C 281.465 165.091 281.544 159.855 281.544 154.335 C 281.544 148.815 281.25 144.486 280.669 141.344 C 280.095 138.206 279.214 135.16 278.053 132.207 C 276.885 129.257 275.175 126.975 272.932 125.355 C 270.684 123.737 267.889 122.453 264.563 121.499 C 255.735 119.216 244.494 117.981 230.834 117.789 C 199.859 117.409 179.955 119.695 171.128 124.644 C 167.631 126.735 164.466 129.592 161.636 133.206 C 158.637 137.395 158.219 139.681 160.384 140.057 C 170.378 141.768 177.453 145.861 181.618 152.332 L 183.118 155.761 C 184.285 158.235 185.451 162.615 186.617 168.895 C 187.782 175.175 188.534 182.122 188.864 189.732 C 189.696 203.629 189.696 215.525 188.864 225.421 C 188.03 235.321 187.243 243.028 186.491 248.548 C 185.74 254.068 184.616 258.541 183.118 261.966 C 181.618 265.392 180.619 267.486 180.119 268.246 C 179.619 269.006 179.203 269.485 178.872 269.673 C 176.707 270.621 174.456 271.104 172.126 271.104 C 169.792 271.104 166.962 269.77 163.632 267.104 C 160.303 264.438 156.847 260.776 153.266 256.112 C 149.684 251.447 145.645 244.928 141.147 236.554 C 136.652 228.18 131.988 218.283 127.158 206.863 L 123.162 198.581 C 120.664 193.253 117.252 185.495 112.921 175.314 C 108.588 165.129 104.758 155.277 101.429 145.76 C 100.098 141.763 98.099 138.72 95.434 136.626 L 94.184 135.767 C 93.353 135.007 92.018 134.2 90.188 133.34 C 88.355 132.481 86.442 131.865 84.442 131.486 L 15.991 132.054 C 8.997 132.054 4.251 133.865 1.752 137.482 L 0.752 139.193 C 0.252 140.146 0 141.668 0 143.763 C 0 145.857 0.5 148.427 1.5 151.47 C 11.492 178.31 22.359 204.195 34.1 229.129 C 45.84 254.063 56.043 274.148 64.701 289.366 C 73.361 304.595 82.188 318.968 91.182 332.478 C 100.176 345.993 106.13 354.654 109.042 358.459 C 111.959 362.271 114.25 365.121 115.915 367.024 L 122.161 373.875 C 126.158 378.444 132.028 383.916 139.772 390.291 C 147.519 396.67 156.095 402.95 165.504 409.141 C 174.916 415.322 185.865 420.366 198.357 424.267 C 210.848 428.172 223.005 429.739 234.831 428.983 L 263.56 428.983 C 269.387 428.408 273.801 426.314 276.802 422.7 L 277.796 421.269 C 278.464 420.133 279.09 418.368 279.667 415.993 C 280.252 413.614 280.542 410.993 280.542 408.142 C 280.372 399.959 280.917 392.584 282.163 386.018 C 283.408 379.454 284.827 374.505 286.414 371.172 C 288.001 367.842 289.791 365.032 291.783 362.754 C 293.78 360.471 295.203 359.088 296.038 358.612 C 296.867 358.133 297.53 357.808 298.029 357.613 C 302.026 356.091 306.73 357.565 312.148 362.042 C 317.562 366.515 322.639 372.038 327.389 378.602 C 332.136 385.172 337.839 392.543 344.5 400.726 C 351.164 408.912 356.992 414.997 361.986 419 L 366.981 422.426 C 370.316 424.712 374.647 426.806 379.977 428.709 C 385.298 430.611 389.96 431.087 393.963 430.136 L 457.914 428.996 C 464.24 428.996 469.162 427.799 472.653 425.424 C 476.151 423.045 478.229 420.424 478.899 417.573 C 479.568 414.719 479.604 411.481 479.026 407.861 C 478.434 404.25 477.85 401.725 477.269 400.298 Z" style="fill: rgb(255, 255, 255);"/>
  </g>
  <g/>
  <g/>
  <g/>
  <g/>
  <g/>
  <g/>
  <g/>
  <g/>
  <g/>
  <g/>
  <g/>
  <g/>
  <g/>
  <g/>
  <g/>
</svg>